<svg width="29" height="29" viewBox="0 0 29 29" fill="none" xmlns="http://www.w3.org/2000/svg">
<mask id="mask0_17745_3212" style="mask-type:alpha" maskUnits="userSpaceOnUse" x="0" y="0" width="29" height="29">
<rect x="0.100098" width="28.8" height="28.8" fill="#D9D9D9"/>
</mask>
<g mask="url(#mask0_17745_3212)">
<path d="M12.82 19.92L21.28 11.46L19.6 9.78003L12.82 16.56L9.4 13.14L7.72 14.82L12.82 19.92ZM14.5 26.4C12.84 26.4 11.28 26.085 9.82 25.455C8.36 24.825 7.09 23.97 6.01 22.89C4.93 21.81 4.075 20.54 3.445 19.08C2.815 17.62 2.5 16.06 2.5 14.4C2.5 12.74 2.815 11.18 3.445 9.72002C4.075 8.26002 4.93 6.99002 6.01 5.91002C7.09 4.83002 8.36 3.97502 9.82 3.34502C11.28 2.71502 12.84 2.40002 14.5 2.40002C16.16 2.40002 17.72 2.71502 19.18 3.34502C20.64 3.97502 21.91 4.83002 22.99 5.91002C24.07 6.99002 24.925 8.26002 25.555 9.72002C26.185 11.18 26.5 12.74 26.5 14.4C26.5 16.06 26.185 17.62 25.555 19.08C24.925 20.54 24.07 21.81 22.99 22.89C21.91 23.97 20.64 24.825 19.18 25.455C17.72 26.085 16.16 26.4 14.5 26.4ZM14.5 24C17.18 24 19.45 23.07 21.31 21.21C23.17 19.35 24.1 17.08 24.1 14.4C24.1 11.72 23.17 9.45003 21.31 7.59002C19.45 5.73002 17.18 4.80002 14.5 4.80002C11.82 4.80002 9.55 5.73002 7.69 7.59002C5.83 9.45003 4.9 11.72 4.9 14.4C4.9 17.08 5.83 19.35 7.69 21.21C9.55 23.07 11.82 24 14.5 24Z" fill="#0069FF"/>
</g>
</svg>
